<mxfile host="app.diagrams.net" modified="2022-10-29T15:43:28.080Z" agent="5.0 (Windows NT 10.0; Win64; x64) AppleWebKit/537.36 (KHTML, like Gecko) Chrome/106.0.0.0 Safari/537.36 Edg/106.0.1370.47" etag="jyci-0yfeLoYJgWGNo_W" version="20.5.1" type="github">
  <diagram id="jykvt1xX2qjJJuVOKQjO" name="Page-1">
    <mxGraphModel dx="1632" dy="460" grid="1" gridSize="10" guides="1" tooltips="1" connect="1" arrows="1" fold="1" page="1" pageScale="1" pageWidth="850" pageHeight="1100" math="0" shadow="0">
      <root>
        <mxCell id="0" />
        <mxCell id="1" parent="0" />
        <mxCell id="D4ShDPF0dCXjn5R1oBv3-1" value="Region" style="points=[[0,0],[0.25,0],[0.5,0],[0.75,0],[1,0],[1,0.25],[1,0.5],[1,0.75],[1,1],[0.75,1],[0.5,1],[0.25,1],[0,1],[0,0.75],[0,0.5],[0,0.25]];outlineConnect=0;html=1;whiteSpace=wrap;fontSize=12;fontStyle=0;container=1;pointerEvents=0;collapsible=0;recursiveResize=0;shape=mxgraph.aws4.group;grIcon=mxgraph.aws4.group_region;strokeColor=#82b366;fillColor=#d5e8d4;verticalAlign=top;align=left;spacingLeft=30;dashed=1;" parent="1" vertex="1">
          <mxGeometry x="-160" y="10" width="960" height="590" as="geometry" />
        </mxCell>
        <mxCell id="D4ShDPF0dCXjn5R1oBv3-42" value="" style="sketch=0;outlineConnect=0;fontColor=#232F3E;gradientColor=none;fillColor=#3F8624;strokeColor=none;dashed=0;verticalLabelPosition=bottom;verticalAlign=top;align=center;html=1;fontSize=12;fontStyle=0;aspect=fixed;pointerEvents=1;shape=mxgraph.aws4.bucket_with_objects;" parent="D4ShDPF0dCXjn5R1oBv3-1" vertex="1">
          <mxGeometry x="100" y="440" width="75" height="78" as="geometry" />
        </mxCell>
        <mxCell id="D4ShDPF0dCXjn5R1oBv3-43" value="&lt;b&gt;S3 Bucket&lt;/b&gt;" style="text;html=1;strokeColor=none;fillColor=none;align=center;verticalAlign=middle;whiteSpace=wrap;rounded=0;fontSize=8;" parent="D4ShDPF0dCXjn5R1oBv3-1" vertex="1">
          <mxGeometry x="107.5" y="510" width="60" height="30" as="geometry" />
        </mxCell>
        <mxCell id="D4ShDPF0dCXjn5R1oBv3-44" value="" style="outlineConnect=0;dashed=0;verticalLabelPosition=bottom;verticalAlign=top;align=center;html=1;shape=mxgraph.aws3.ami;fillColor=#F58534;gradientColor=none;fontSize=8;" parent="D4ShDPF0dCXjn5R1oBv3-1" vertex="1">
          <mxGeometry x="107.5" y="170" width="40" height="40" as="geometry" />
        </mxCell>
        <mxCell id="D4ShDPF0dCXjn5R1oBv3-45" value="AMI" style="text;html=1;strokeColor=none;fillColor=none;align=center;verticalAlign=middle;whiteSpace=wrap;rounded=0;fontSize=8;" parent="D4ShDPF0dCXjn5R1oBv3-1" vertex="1">
          <mxGeometry x="97.5" y="210" width="60" height="10" as="geometry" />
        </mxCell>
        <mxCell id="D4ShDPF0dCXjn5R1oBv3-49" value="" style="sketch=0;outlineConnect=0;fontColor=#232F3E;gradientColor=none;fillColor=#BF0816;strokeColor=none;dashed=0;verticalLabelPosition=bottom;verticalAlign=top;align=center;html=1;fontSize=12;fontStyle=0;aspect=fixed;pointerEvents=1;shape=mxgraph.aws4.role;" parent="D4ShDPF0dCXjn5R1oBv3-1" vertex="1">
          <mxGeometry x="115.09" y="80" width="24.82" height="14" as="geometry" />
        </mxCell>
        <mxCell id="D4ShDPF0dCXjn5R1oBv3-96" value="Security group" style="fillColor=none;strokeColor=#DD3522;verticalAlign=top;fontStyle=0;fontColor=#DD3522;rounded=1;sketch=1;fontSize=8;" parent="D4ShDPF0dCXjn5R1oBv3-1" vertex="1">
          <mxGeometry x="73.75" y="30" width="107.5" height="130" as="geometry" />
        </mxCell>
        <mxCell id="D4ShDPF0dCXjn5R1oBv3-5" value="VPC IP: 10.0.0.0/16" style="points=[[0,0],[0.25,0],[0.5,0],[0.75,0],[1,0],[1,0.25],[1,0.5],[1,0.75],[1,1],[0.75,1],[0.5,1],[0.25,1],[0,1],[0,0.75],[0,0.5],[0,0.25]];outlineConnect=0;html=1;whiteSpace=wrap;fontSize=12;fontStyle=0;container=1;pointerEvents=0;collapsible=0;recursiveResize=0;shape=mxgraph.aws4.group;grIcon=mxgraph.aws4.group_vpc;strokeColor=#d79b00;fillColor=#ffe6cc;verticalAlign=top;align=left;spacingLeft=30;dashed=0;" parent="1" vertex="1">
          <mxGeometry x="70" y="60" width="700" height="510" as="geometry" />
        </mxCell>
        <mxCell id="D4ShDPF0dCXjn5R1oBv3-6" value="Availability Zone A" style="fillColor=none;strokeColor=#147EBA;dashed=1;verticalAlign=top;fontStyle=0;fontColor=#147EBA;" parent="D4ShDPF0dCXjn5R1oBv3-5" vertex="1">
          <mxGeometry x="30" y="30" width="620" height="180" as="geometry" />
        </mxCell>
        <mxCell id="D4ShDPF0dCXjn5R1oBv3-7" value="Availability Zone" style="fillColor=none;strokeColor=#147EBA;dashed=1;verticalAlign=top;fontStyle=0;fontColor=#147EBA;" parent="D4ShDPF0dCXjn5R1oBv3-5" vertex="1">
          <mxGeometry x="30" y="280" width="620" height="190" as="geometry" />
        </mxCell>
        <mxCell id="D4ShDPF0dCXjn5R1oBv3-9" value="&lt;font style=&quot;font-size: 8px;&quot;&gt;Public subnet: IP 10.0.1.0/24&lt;/font&gt;" style="points=[[0,0],[0.25,0],[0.5,0],[0.75,0],[1,0],[1,0.25],[1,0.5],[1,0.75],[1,1],[0.75,1],[0.5,1],[0.25,1],[0,1],[0,0.75],[0,0.5],[0,0.25]];outlineConnect=0;gradientColor=none;html=1;whiteSpace=wrap;fontSize=12;fontStyle=0;container=1;pointerEvents=0;collapsible=0;recursiveResize=0;shape=mxgraph.aws4.group;grIcon=mxgraph.aws4.group_security_group;grStroke=0;strokeColor=#248814;fillColor=#E9F3E6;verticalAlign=top;align=left;spacingLeft=30;fontColor=#248814;dashed=0;" parent="D4ShDPF0dCXjn5R1oBv3-5" vertex="1">
          <mxGeometry x="50" y="60" width="150" height="130" as="geometry" />
        </mxCell>
        <mxCell id="D4ShDPF0dCXjn5R1oBv3-22" value="" style="sketch=0;outlineConnect=0;fontColor=#232F3E;gradientColor=none;fillColor=#4D27AA;strokeColor=none;dashed=0;verticalLabelPosition=bottom;verticalAlign=top;align=center;html=1;fontSize=12;fontStyle=0;aspect=fixed;pointerEvents=1;shape=mxgraph.aws4.nat_gateway;" parent="D4ShDPF0dCXjn5R1oBv3-9" vertex="1">
          <mxGeometry x="37.5" y="39.5" width="55" height="55" as="geometry" />
        </mxCell>
        <mxCell id="D4ShDPF0dCXjn5R1oBv3-31" value="Nat Gateway" style="text;html=1;strokeColor=none;fillColor=none;align=center;verticalAlign=middle;whiteSpace=wrap;rounded=0;fontSize=10;" parent="D4ShDPF0dCXjn5R1oBv3-9" vertex="1">
          <mxGeometry x="30" y="20" width="70" height="30" as="geometry" />
        </mxCell>
        <mxCell id="D4ShDPF0dCXjn5R1oBv3-12" value="&lt;font style=&quot;font-size: 8px;&quot;&gt;Public subnet: IP 10.0.4.0/24&lt;/font&gt;" style="points=[[0,0],[0.25,0],[0.5,0],[0.75,0],[1,0],[1,0.25],[1,0.5],[1,0.75],[1,1],[0.75,1],[0.5,1],[0.25,1],[0,1],[0,0.75],[0,0.5],[0,0.25]];outlineConnect=0;gradientColor=none;html=1;whiteSpace=wrap;fontSize=12;fontStyle=0;container=1;pointerEvents=0;collapsible=0;recursiveResize=0;shape=mxgraph.aws4.group;grIcon=mxgraph.aws4.group_security_group;grStroke=0;strokeColor=#248814;fillColor=#E9F3E6;verticalAlign=top;align=left;spacingLeft=30;fontColor=#248814;dashed=0;" parent="D4ShDPF0dCXjn5R1oBv3-5" vertex="1">
          <mxGeometry x="50" y="310" width="150" height="130" as="geometry" />
        </mxCell>
        <mxCell id="D4ShDPF0dCXjn5R1oBv3-23" value="" style="sketch=0;outlineConnect=0;fontColor=#232F3E;gradientColor=none;fillColor=#4D27AA;strokeColor=none;dashed=0;verticalLabelPosition=bottom;verticalAlign=top;align=center;html=1;fontSize=12;fontStyle=0;aspect=fixed;pointerEvents=1;shape=mxgraph.aws4.nat_gateway;" parent="D4ShDPF0dCXjn5R1oBv3-12" vertex="1">
          <mxGeometry x="43" y="38" width="54" height="54" as="geometry" />
        </mxCell>
        <mxCell id="D4ShDPF0dCXjn5R1oBv3-13" value="&lt;font style=&quot;font-size: 8px;&quot;&gt;Private subnet: IP 10.0.2.0/24&lt;/font&gt;" style="points=[[0,0],[0.25,0],[0.5,0],[0.75,0],[1,0],[1,0.25],[1,0.5],[1,0.75],[1,1],[0.75,1],[0.5,1],[0.25,1],[0,1],[0,0.75],[0,0.5],[0,0.25]];outlineConnect=0;gradientColor=none;html=1;whiteSpace=wrap;fontSize=12;fontStyle=0;container=1;pointerEvents=0;collapsible=0;recursiveResize=0;shape=mxgraph.aws4.group;grIcon=mxgraph.aws4.group_security_group;grStroke=0;strokeColor=#147EBA;fillColor=#E6F2F8;verticalAlign=top;align=left;spacingLeft=30;fontColor=#147EBA;dashed=0;" parent="D4ShDPF0dCXjn5R1oBv3-5" vertex="1">
          <mxGeometry x="260" y="60" width="150" height="130" as="geometry" />
        </mxCell>
        <mxCell id="D4ShDPF0dCXjn5R1oBv3-20" value="" style="sketch=0;outlineConnect=0;fontColor=#232F3E;gradientColor=none;fillColor=#D45B07;strokeColor=none;dashed=0;verticalLabelPosition=bottom;verticalAlign=top;align=center;html=1;fontSize=12;fontStyle=0;aspect=fixed;pointerEvents=1;shape=mxgraph.aws4.ec2_m1_mac_instance;" parent="D4ShDPF0dCXjn5R1oBv3-13" vertex="1">
          <mxGeometry x="51" y="42" width="49" height="49" as="geometry" />
        </mxCell>
        <mxCell id="D4ShDPF0dCXjn5R1oBv3-29" value="&lt;font style=&quot;font-size: 10px;&quot;&gt;WebApplication&lt;/font&gt;" style="text;html=1;strokeColor=none;fillColor=none;align=center;verticalAlign=middle;whiteSpace=wrap;rounded=0;" parent="D4ShDPF0dCXjn5R1oBv3-13" vertex="1">
          <mxGeometry x="45.5" y="20" width="60" height="30" as="geometry" />
        </mxCell>
        <mxCell id="D4ShDPF0dCXjn5R1oBv3-14" value="&lt;font style=&quot;font-size: 8px;&quot;&gt;Private subnet:IP 10.0.5.0/24&lt;/font&gt;" style="points=[[0,0],[0.25,0],[0.5,0],[0.75,0],[1,0],[1,0.25],[1,0.5],[1,0.75],[1,1],[0.75,1],[0.5,1],[0.25,1],[0,1],[0,0.75],[0,0.5],[0,0.25]];outlineConnect=0;gradientColor=none;html=1;whiteSpace=wrap;fontSize=12;fontStyle=0;container=1;pointerEvents=0;collapsible=0;recursiveResize=0;shape=mxgraph.aws4.group;grIcon=mxgraph.aws4.group_security_group;grStroke=0;strokeColor=#147EBA;fillColor=#E6F2F8;verticalAlign=top;align=left;spacingLeft=30;fontColor=#147EBA;dashed=0;" parent="D4ShDPF0dCXjn5R1oBv3-5" vertex="1">
          <mxGeometry x="260" y="310" width="160" height="130" as="geometry" />
        </mxCell>
        <mxCell id="D4ShDPF0dCXjn5R1oBv3-30" value="&lt;font style=&quot;font-size: 10px;&quot;&gt;WebApplication&lt;/font&gt;" style="text;html=1;strokeColor=none;fillColor=none;align=center;verticalAlign=middle;whiteSpace=wrap;rounded=0;" parent="D4ShDPF0dCXjn5R1oBv3-14" vertex="1">
          <mxGeometry x="41" y="80" width="60" height="31" as="geometry" />
        </mxCell>
        <mxCell id="D4ShDPF0dCXjn5R1oBv3-15" value="&lt;font style=&quot;font-size: 8px;&quot;&gt;Private subnet: IP 10.0.3.0/24&lt;/font&gt;" style="points=[[0,0],[0.25,0],[0.5,0],[0.75,0],[1,0],[1,0.25],[1,0.5],[1,0.75],[1,1],[0.75,1],[0.5,1],[0.25,1],[0,1],[0,0.75],[0,0.5],[0,0.25]];outlineConnect=0;gradientColor=none;html=1;whiteSpace=wrap;fontSize=12;fontStyle=0;container=1;pointerEvents=0;collapsible=0;recursiveResize=0;shape=mxgraph.aws4.group;grIcon=mxgraph.aws4.group_security_group;grStroke=0;strokeColor=#147EBA;fillColor=#E6F2F8;verticalAlign=top;align=left;spacingLeft=30;fontColor=#147EBA;dashed=0;" parent="D4ShDPF0dCXjn5R1oBv3-5" vertex="1">
          <mxGeometry x="470" y="60" width="160" height="130" as="geometry" />
        </mxCell>
        <mxCell id="D4ShDPF0dCXjn5R1oBv3-25" value="" style="sketch=0;outlineConnect=0;fontColor=#232F3E;gradientColor=none;fillColor=#2E27AD;strokeColor=none;dashed=0;verticalLabelPosition=bottom;verticalAlign=top;align=center;html=1;fontSize=12;fontStyle=0;aspect=fixed;pointerEvents=1;shape=mxgraph.aws4.rds_instance;" parent="D4ShDPF0dCXjn5R1oBv3-15" vertex="1">
          <mxGeometry x="57.5" y="30" width="45" height="45" as="geometry" />
        </mxCell>
        <mxCell id="D4ShDPF0dCXjn5R1oBv3-36" value="Standby DB" style="text;html=1;strokeColor=none;fillColor=none;align=center;verticalAlign=middle;whiteSpace=wrap;rounded=0;fontSize=10;" parent="D4ShDPF0dCXjn5R1oBv3-15" vertex="1">
          <mxGeometry x="50" y="75" width="60" height="30" as="geometry" />
        </mxCell>
        <mxCell id="D4ShDPF0dCXjn5R1oBv3-16" value="&lt;font style=&quot;font-size: 8px;&quot;&gt;Private subnet: IP 10.0.6.0/24&lt;/font&gt;" style="points=[[0,0],[0.25,0],[0.5,0],[0.75,0],[1,0],[1,0.25],[1,0.5],[1,0.75],[1,1],[0.75,1],[0.5,1],[0.25,1],[0,1],[0,0.75],[0,0.5],[0,0.25]];outlineConnect=0;gradientColor=none;html=1;whiteSpace=wrap;fontSize=12;fontStyle=0;container=1;pointerEvents=0;collapsible=0;recursiveResize=0;shape=mxgraph.aws4.group;grIcon=mxgraph.aws4.group_security_group;grStroke=0;strokeColor=#147EBA;fillColor=#E6F2F8;verticalAlign=top;align=left;spacingLeft=30;fontColor=#147EBA;dashed=0;" parent="D4ShDPF0dCXjn5R1oBv3-5" vertex="1">
          <mxGeometry x="470" y="310" width="160" height="130" as="geometry" />
        </mxCell>
        <mxCell id="D4ShDPF0dCXjn5R1oBv3-26" value="" style="sketch=0;outlineConnect=0;fontColor=#232F3E;gradientColor=none;fillColor=#2E27AD;strokeColor=none;dashed=0;verticalLabelPosition=bottom;verticalAlign=top;align=center;html=1;fontSize=12;fontStyle=0;aspect=fixed;pointerEvents=1;shape=mxgraph.aws4.rds_instance;" parent="D4ShDPF0dCXjn5R1oBv3-16" vertex="1">
          <mxGeometry x="57.5" y="42.5" width="45" height="45" as="geometry" />
        </mxCell>
        <mxCell id="D4ShDPF0dCXjn5R1oBv3-35" value="Master DB" style="text;html=1;strokeColor=none;fillColor=none;align=center;verticalAlign=middle;whiteSpace=wrap;rounded=0;fontSize=10;" parent="D4ShDPF0dCXjn5R1oBv3-16" vertex="1">
          <mxGeometry x="54" y="90" width="60" height="30" as="geometry" />
        </mxCell>
        <mxCell id="D4ShDPF0dCXjn5R1oBv3-28" value="" style="sketch=0;outlineConnect=0;fontColor=#232F3E;gradientColor=none;fillColor=#4D27AA;strokeColor=none;dashed=0;verticalLabelPosition=bottom;verticalAlign=top;align=center;html=1;fontSize=12;fontStyle=0;aspect=fixed;pointerEvents=1;shape=mxgraph.aws4.internet_gateway;" parent="D4ShDPF0dCXjn5R1oBv3-5" vertex="1">
          <mxGeometry x="-26" y="219" width="50" height="50" as="geometry" />
        </mxCell>
        <mxCell id="D4ShDPF0dCXjn5R1oBv3-32" value="Nat Gateway" style="text;html=1;strokeColor=none;fillColor=none;align=center;verticalAlign=middle;whiteSpace=wrap;rounded=0;fontSize=10;" parent="D4ShDPF0dCXjn5R1oBv3-5" vertex="1">
          <mxGeometry x="83" y="397" width="80" height="30" as="geometry" />
        </mxCell>
        <mxCell id="D4ShDPF0dCXjn5R1oBv3-74" style="edgeStyle=none;rounded=0;orthogonalLoop=1;jettySize=auto;html=1;fontSize=8;strokeWidth=2;" parent="D4ShDPF0dCXjn5R1oBv3-5" source="D4ShDPF0dCXjn5R1oBv3-21" target="D4ShDPF0dCXjn5R1oBv3-23" edge="1">
          <mxGeometry relative="1" as="geometry" />
        </mxCell>
        <mxCell id="D4ShDPF0dCXjn5R1oBv3-21" value="" style="sketch=0;outlineConnect=0;fontColor=#232F3E;gradientColor=none;fillColor=#D45B07;strokeColor=none;dashed=0;verticalLabelPosition=bottom;verticalAlign=top;align=center;html=1;fontSize=12;fontStyle=0;aspect=fixed;pointerEvents=1;shape=mxgraph.aws4.ec2_m1_mac_instance;" parent="D4ShDPF0dCXjn5R1oBv3-5" vertex="1">
          <mxGeometry x="311" y="349" width="48" height="48" as="geometry" />
        </mxCell>
        <mxCell id="D4ShDPF0dCXjn5R1oBv3-37" value="" style="sketch=0;outlineConnect=0;fontColor=#232F3E;gradientColor=none;fillColor=#D45B07;strokeColor=none;dashed=0;verticalLabelPosition=bottom;verticalAlign=top;align=center;html=1;fontSize=12;fontStyle=0;aspect=fixed;pointerEvents=1;shape=mxgraph.aws4.auto_scaling2;" parent="D4ShDPF0dCXjn5R1oBv3-5" vertex="1">
          <mxGeometry x="311" y="218" width="48" height="48" as="geometry" />
        </mxCell>
        <mxCell id="D4ShDPF0dCXjn5R1oBv3-38" value="Auto Scaling" style="text;html=1;strokeColor=none;fillColor=none;align=center;verticalAlign=middle;whiteSpace=wrap;rounded=0;fontSize=8;" parent="D4ShDPF0dCXjn5R1oBv3-5" vertex="1">
          <mxGeometry x="305" y="255" width="60" height="30" as="geometry" />
        </mxCell>
        <mxCell id="D4ShDPF0dCXjn5R1oBv3-39" value="" style="sketch=0;outlineConnect=0;fontColor=#232F3E;gradientColor=none;fillColor=#4D27AA;strokeColor=none;dashed=0;verticalLabelPosition=bottom;verticalAlign=top;align=center;html=1;fontSize=12;fontStyle=0;aspect=fixed;pointerEvents=1;shape=mxgraph.aws4.application_load_balancer;" parent="D4ShDPF0dCXjn5R1oBv3-5" vertex="1">
          <mxGeometry x="90" y="216" width="53" height="53" as="geometry" />
        </mxCell>
        <mxCell id="D4ShDPF0dCXjn5R1oBv3-41" value="Application Load Balancer" style="text;html=1;strokeColor=none;fillColor=none;align=center;verticalAlign=middle;whiteSpace=wrap;rounded=0;fontSize=8;" parent="D4ShDPF0dCXjn5R1oBv3-5" vertex="1">
          <mxGeometry x="76" y="257" width="97" height="30" as="geometry" />
        </mxCell>
        <mxCell id="D4ShDPF0dCXjn5R1oBv3-40" value="Internet Gateway" style="text;html=1;strokeColor=none;fillColor=none;align=center;verticalAlign=middle;whiteSpace=wrap;rounded=0;fontSize=8;" parent="D4ShDPF0dCXjn5R1oBv3-5" vertex="1">
          <mxGeometry x="-30" y="257" width="70" height="30" as="geometry" />
        </mxCell>
        <mxCell id="D4ShDPF0dCXjn5R1oBv3-50" value="" style="rounded=1;arcSize=10;dashed=1;fillColor=none;gradientColor=none;dashPattern=8 3 1 3;strokeWidth=2;fontSize=8;" parent="D4ShDPF0dCXjn5R1oBv3-5" vertex="1">
          <mxGeometry x="290" y="160" width="90" height="180" as="geometry" />
        </mxCell>
        <mxCell id="D4ShDPF0dCXjn5R1oBv3-63" value="" style="endArrow=classic;startArrow=classic;html=1;rounded=0;fontSize=8;exitX=0.5;exitY=0;exitDx=0;exitDy=0;strokeWidth=2;shadow=0;sketch=0;jumpStyle=none;dashed=1;" parent="D4ShDPF0dCXjn5R1oBv3-5" source="D4ShDPF0dCXjn5R1oBv3-36" target="D4ShDPF0dCXjn5R1oBv3-26" edge="1">
          <mxGeometry width="50" height="50" relative="1" as="geometry">
            <mxPoint x="270" y="270" as="sourcePoint" />
            <mxPoint x="320" y="220" as="targetPoint" />
            <Array as="points" />
          </mxGeometry>
        </mxCell>
        <mxCell id="D4ShDPF0dCXjn5R1oBv3-67" value="" style="endArrow=classic;startArrow=classic;html=1;rounded=0;fontSize=8;strokeWidth=2;edgeStyle=orthogonalEdgeStyle;" parent="D4ShDPF0dCXjn5R1oBv3-5" source="D4ShDPF0dCXjn5R1oBv3-26" edge="1">
          <mxGeometry width="50" height="50" relative="1" as="geometry">
            <mxPoint x="640" y="422.55624744329805" as="sourcePoint" />
            <mxPoint x="360" y="375" as="targetPoint" />
          </mxGeometry>
        </mxCell>
        <mxCell id="D4ShDPF0dCXjn5R1oBv3-72" style="edgeStyle=none;rounded=0;orthogonalLoop=1;jettySize=auto;html=1;fontSize=8;strokeWidth=2;" parent="D4ShDPF0dCXjn5R1oBv3-5" source="D4ShDPF0dCXjn5R1oBv3-20" target="D4ShDPF0dCXjn5R1oBv3-22" edge="1">
          <mxGeometry relative="1" as="geometry">
            <mxPoint x="160" y="127" as="targetPoint" />
          </mxGeometry>
        </mxCell>
        <mxCell id="D4ShDPF0dCXjn5R1oBv3-75" value="" style="endArrow=classic;startArrow=classic;html=1;rounded=0;shadow=0;sketch=0;strokeWidth=2;fontSize=8;jumpStyle=none;" parent="D4ShDPF0dCXjn5R1oBv3-5" target="D4ShDPF0dCXjn5R1oBv3-28" edge="1">
          <mxGeometry width="50" height="50" relative="1" as="geometry">
            <mxPoint x="90" y="244" as="sourcePoint" />
            <mxPoint x="320" y="220" as="targetPoint" />
          </mxGeometry>
        </mxCell>
        <mxCell id="D4ShDPF0dCXjn5R1oBv3-81" value="" style="edgeStyle=segmentEdgeStyle;endArrow=classic;html=1;rounded=0;shadow=0;sketch=0;strokeWidth=2;fontSize=8;jumpStyle=none;" parent="D4ShDPF0dCXjn5R1oBv3-5" source="D4ShDPF0dCXjn5R1oBv3-22" target="D4ShDPF0dCXjn5R1oBv3-28" edge="1">
          <mxGeometry width="50" height="50" relative="1" as="geometry">
            <mxPoint x="-20" y="270" as="sourcePoint" />
            <mxPoint x="30" y="220" as="targetPoint" />
          </mxGeometry>
        </mxCell>
        <mxCell id="0dpXQoCyR_tIUTF_tBVy-6" value="elastic IP" style="edgeLabel;html=1;align=center;verticalAlign=middle;resizable=0;points=[];fontSize=8;" vertex="1" connectable="0" parent="D4ShDPF0dCXjn5R1oBv3-81">
          <mxGeometry x="-0.3518" relative="1" as="geometry">
            <mxPoint x="1" as="offset" />
          </mxGeometry>
        </mxCell>
        <mxCell id="D4ShDPF0dCXjn5R1oBv3-82" value="" style="edgeStyle=segmentEdgeStyle;endArrow=classic;html=1;rounded=0;shadow=0;sketch=0;strokeWidth=2;fontSize=8;jumpStyle=none;" parent="D4ShDPF0dCXjn5R1oBv3-5" source="D4ShDPF0dCXjn5R1oBv3-23" edge="1">
          <mxGeometry width="50" height="50" relative="1" as="geometry">
            <mxPoint x="-20" y="270" as="sourcePoint" />
            <mxPoint y="270" as="targetPoint" />
            <Array as="points">
              <mxPoint y="375" />
            </Array>
          </mxGeometry>
        </mxCell>
        <mxCell id="0dpXQoCyR_tIUTF_tBVy-8" value="elastic IP" style="edgeLabel;html=1;align=center;verticalAlign=middle;resizable=0;points=[];fontSize=8;" vertex="1" connectable="0" parent="D4ShDPF0dCXjn5R1oBv3-82">
          <mxGeometry x="-0.202" relative="1" as="geometry">
            <mxPoint as="offset" />
          </mxGeometry>
        </mxCell>
        <mxCell id="D4ShDPF0dCXjn5R1oBv3-92" value="" style="endArrow=classic;html=1;rounded=0;shadow=0;sketch=0;strokeWidth=2;fontSize=8;jumpStyle=none;" parent="D4ShDPF0dCXjn5R1oBv3-5" edge="1">
          <mxGeometry width="50" height="50" relative="1" as="geometry">
            <mxPoint x="450" y="127" as="sourcePoint" />
            <mxPoint x="360" y="127" as="targetPoint" />
          </mxGeometry>
        </mxCell>
        <mxCell id="D4ShDPF0dCXjn5R1oBv3-95" value="" style="rounded=1;arcSize=10;dashed=1;strokeColor=#ff0000;fillColor=none;gradientColor=none;dashPattern=8 4;strokeWidth=2;sketch=1;fontSize=8;" parent="D4ShDPF0dCXjn5R1oBv3-5" vertex="1">
          <mxGeometry x="70" y="160" width="90" height="190" as="geometry" />
        </mxCell>
        <mxCell id="0dpXQoCyR_tIUTF_tBVy-2" value="Route table (Public)" style="text;html=1;strokeColor=none;fillColor=none;align=center;verticalAlign=middle;whiteSpace=wrap;rounded=0;sketch=1;fontSize=8;" vertex="1" parent="D4ShDPF0dCXjn5R1oBv3-5">
          <mxGeometry x="85" y="160" width="60" height="30" as="geometry" />
        </mxCell>
        <mxCell id="0dpXQoCyR_tIUTF_tBVy-3" value="Route table (Private)" style="text;html=1;strokeColor=none;fillColor=none;align=center;verticalAlign=middle;whiteSpace=wrap;rounded=0;sketch=1;fontSize=8;" vertex="1" parent="D4ShDPF0dCXjn5R1oBv3-5">
          <mxGeometry x="305" y="160" width="60" height="30" as="geometry" />
        </mxCell>
        <mxCell id="D4ShDPF0dCXjn5R1oBv3-46" value="" style="sketch=0;points=[[0,0,0],[0.25,0,0],[0.5,0,0],[0.75,0,0],[1,0,0],[0,1,0],[0.25,1,0],[0.5,1,0],[0.75,1,0],[1,1,0],[0,0.25,0],[0,0.5,0],[0,0.75,0],[1,0.25,0],[1,0.5,0],[1,0.75,0]];outlineConnect=0;fontColor=#232F3E;gradientColor=#945DF2;gradientDirection=north;fillColor=#5A30B5;strokeColor=#ffffff;dashed=0;verticalLabelPosition=bottom;verticalAlign=top;align=center;html=1;fontSize=12;fontStyle=0;aspect=fixed;shape=mxgraph.aws4.resourceIcon;resIcon=mxgraph.aws4.route_53;" parent="1" vertex="1">
          <mxGeometry x="-250" y="270" width="78" height="78" as="geometry" />
        </mxCell>
        <mxCell id="D4ShDPF0dCXjn5R1oBv3-48" value="&lt;b&gt;Amazon Route 53&lt;/b&gt;" style="text;html=1;strokeColor=none;fillColor=none;align=center;verticalAlign=middle;whiteSpace=wrap;rounded=0;fontSize=8;" parent="1" vertex="1">
          <mxGeometry x="-241" y="346" width="60" height="30" as="geometry" />
        </mxCell>
        <mxCell id="D4ShDPF0dCXjn5R1oBv3-76" value="" style="endArrow=classic;startArrow=classic;html=1;rounded=0;shadow=0;sketch=0;strokeWidth=2;fontSize=8;jumpStyle=none;" parent="1" edge="1">
          <mxGeometry width="50" height="50" relative="1" as="geometry">
            <mxPoint x="53" y="304" as="sourcePoint" />
            <mxPoint x="-170" y="304" as="targetPoint" />
          </mxGeometry>
        </mxCell>
        <mxCell id="D4ShDPF0dCXjn5R1oBv3-77" value="" style="endArrow=classic;startArrow=classic;html=1;rounded=0;shadow=0;sketch=0;strokeWidth=2;fontSize=8;jumpStyle=none;exitX=0.5;exitY=0;exitDx=0;exitDy=0;exitPerimeter=0;" parent="1" source="D4ShDPF0dCXjn5R1oBv3-46" edge="1">
          <mxGeometry width="50" height="50" relative="1" as="geometry">
            <mxPoint x="60" y="330" as="sourcePoint" />
            <mxPoint x="-210" y="120" as="targetPoint" />
          </mxGeometry>
        </mxCell>
        <mxCell id="D4ShDPF0dCXjn5R1oBv3-79" value="" style="shape=image;html=1;verticalAlign=top;verticalLabelPosition=bottom;labelBackgroundColor=#ffffff;imageAspect=0;aspect=fixed;image=https://cdn2.iconfinder.com/data/icons/crystalproject/128x128/apps/Community-Help.png;fontSize=8;" parent="1" vertex="1">
          <mxGeometry x="-253.5" y="50" width="85" height="85" as="geometry" />
        </mxCell>
        <mxCell id="D4ShDPF0dCXjn5R1oBv3-90" value="" style="endArrow=none;html=1;rounded=0;shadow=0;sketch=0;strokeWidth=2;fontSize=8;jumpStyle=none;" parent="1" edge="1">
          <mxGeometry width="50" height="50" relative="1" as="geometry">
            <mxPoint x="520" y="436" as="sourcePoint" />
            <mxPoint x="520" y="186" as="targetPoint" />
          </mxGeometry>
        </mxCell>
      </root>
    </mxGraphModel>
  </diagram>
</mxfile>
